<?xml version="1.0" standalone="no"?>
<!DOCTYPE svg PUBLIC "-//W3C//DTD SVG 20010904//EN"
 "http://www.w3.org/TR/2001/REC-SVG-20010904/DTD/svg10.dtd">
<svg version="1.0" xmlns="http://www.w3.org/2000/svg"
 width="4096.000000pt" height="4096.000000pt" viewBox="0 0 4096.000000 4096.000000"
 preserveAspectRatio="xMidYMid meet">
<metadata>
Created by potrace 1.11, written by Peter Selinger 2001-2013
</metadata>
<g transform="translate(0.000000,4096.000000) scale(0.100000,-0.100000)"
fill="#000000" stroke="none">
<path d="M0 20480 l0 -20480 20480 0 20480 0 0 20480 0 20480 -20480 0 -20480
0 0 -20480z m36210 15333 c595 -102 1075 -350 1470 -759 373 -387 597 -841
693 -1404 l21 -125 3 -3962 3 -3963 -2560 0 -2560 0 0 2560 0 2560 -5120 0
-5120 0 0 -3840 0 -3840 7680 0 7680 0 0 -2560 0 -2560 -7680 0 -7680 0 0
-6400 0 -6400 -2560 0 -2560 0 0 6400 0 6400 -7680 0 -7680 0 0 2560 0 2560
7680 0 7680 0 0 6400 0 6400 9083 -3 9082 -3 125 -21z m2190 -25573 l0 -5120
-2560 0 -2560 0 0 5120 0 5120 2560 0 2560 0 0 -5120z"/>
</g>
</svg>
